<svg width="56" height="27" viewBox="0 0 56 27" fill="none" xmlns="http://www.w3.org/2000/svg">
<g clip-path="url(#clip0_70_4)">
<path d="M40.3189 14.6241C43.2652 12.9531 46.2037 11.2685 49.1601 9.61503C51.9662 8.04493 55.2676 9.49278 55.904 12.5479C56.2721 14.3152 55.473 16.2244 53.8571 17.1543C48.5594 20.2027 43.2541 23.239 37.9223 26.2289C36.272 27.1542 34.5721 26.984 33.0682 25.85C31.5405 24.6987 31.059 23.1107 31.4173 21.2624C31.8264 19.8554 32.7626 18.9147 34.0395 18.211C36.1504 17.0476 38.2274 15.8229 40.3189 14.6241" fill="#FABC05"/>
<path d="M42.4819 13.4091C39.543 11.7251 36.5966 10.0544 33.668 8.35338C30.8879 6.73856 30.5073 3.19141 32.8685 1.11954C34.2344 -0.0786101 36.3083 -0.350122 37.9319 0.566798C43.2545 3.57287 48.5701 6.59168 53.8582 9.65608C55.4949 10.6045 56.1953 12.1435 55.9532 13.9966C55.7071 15.8784 54.5554 17.0841 52.755 17.7021C51.3163 18.0559 50.0233 17.7254 48.7677 16.9854C46.6917 15.7617 44.5791 14.5979 42.4819 13.4091" fill="#109D58"/>
<path d="M15.6958 12.2176C13.81 13.2756 11.923 14.3316 10.0389 15.3928C8.93708 16.0136 7.84705 16.6556 6.73952 17.266C4.50761 18.4961 1.85592 17.7751 0.590456 15.6084C-0.617262 13.5408 0.0768313 10.8603 2.22627 9.6213C7.48174 6.59233 12.7508 3.58539 18.0388 0.611934C19.6606 -0.299802 21.3433 -0.185106 22.843 0.905046C24.4259 2.05568 24.9441 3.67481 24.5886 5.57281C24.3681 6.03224 24.2365 6.57073 23.9061 6.93253C23.3693 7.52113 22.759 8.08467 22.0796 8.49853C19.977 9.77876 17.8271 10.9836 15.6958 12.2176" fill="#E94436"/>
<path d="M13.5335 13.4043C15.4044 14.4878 17.2741 15.5736 19.1468 16.654C20.2421 17.2861 21.3501 17.8971 22.4392 18.5389C24.6342 19.8327 25.3278 22.4606 24.0602 24.626C22.8505 26.6926 20.1526 27.4396 17.9912 26.2207C12.7068 23.241 7.43516 20.239 2.18341 17.2035C0.572755 16.2726 -0.167933 14.7764 0.0383485 12.9488C0.256005 11.0197 1.41691 9.7671 3.25944 9.12191C3.77241 9.08109 4.31054 8.92427 4.7931 9.02579C5.57775 9.19081 6.37729 9.43079 7.07991 9.8049C9.25407 10.9627 11.3856 12.1986 13.5335 13.4043" fill="#4385F3"/>
</g>
<defs>
<clipPath id="clip0_70_4">
<rect width="56" height="27" fill="white"/>
</clipPath>
</defs>
</svg>
