<svg width="34" height="34" viewBox="0 0 34 34" fill="none" xmlns="http://www.w3.org/2000/svg">
<path fill-rule="evenodd" clip-rule="evenodd" d="M10.5754 1.51016C12.2372 1.43366 12.767 1.41666 17 1.41666C21.233 1.41666 21.7629 1.43507 23.4232 1.51016C25.0835 1.58524 26.2169 1.85016 27.2085 2.23407C28.2469 2.62649 29.189 3.23991 29.9682 4.03324C30.7615 4.81099 31.3735 5.75166 31.7645 6.79149C32.1499 7.78316 32.4134 8.91649 32.4899 10.574C32.5664 12.2386 32.5834 12.7684 32.5834 17C32.5834 21.233 32.5649 21.7628 32.4899 23.4246C32.4148 25.0821 32.1499 26.2154 31.7645 27.2071C31.3735 28.247 30.7605 29.1893 29.9682 29.9682C29.189 30.7615 28.2469 31.3735 27.2085 31.7645C26.2169 32.1498 25.0835 32.4133 23.426 32.4898C21.7629 32.5663 21.233 32.5833 17 32.5833C12.767 32.5833 12.2372 32.5649 10.5754 32.4898C8.91794 32.4147 7.7846 32.1498 6.79294 31.7645C5.75299 31.3734 4.81077 30.7604 4.03185 29.9682C3.23906 29.1899 2.62555 28.2482 2.2341 27.2085C1.85019 26.2168 1.58669 25.0835 1.51019 23.426C1.43369 21.7614 1.41669 21.2316 1.41669 17C1.41669 12.767 1.4351 12.2372 1.51019 10.5768C1.58527 8.91649 1.85019 7.78316 2.2341 6.79149C2.62613 5.75177 3.24011 4.81002 4.03327 4.03182C4.81108 3.2392 5.75236 2.6257 6.79152 2.23407C7.78319 1.85016 8.91652 1.58666 10.574 1.51016H10.5754ZM23.2971 4.31516C21.6538 4.24007 21.1608 4.22449 17 4.22449C12.8393 4.22449 12.3463 4.24007 10.7029 4.31516C9.18285 4.38457 8.35835 4.63816 7.80869 4.85207C7.08194 5.13541 6.56202 5.47116 6.0166 6.01657C5.49958 6.51956 5.10169 7.13189 4.8521 7.80866C4.63819 8.35832 4.3846 9.18282 4.31519 10.7029C4.2401 12.3462 4.22452 12.8392 4.22452 17C4.22452 21.1607 4.2401 21.6537 4.31519 23.2971C4.3846 24.8172 4.63819 25.6417 4.8521 26.1913C5.10144 26.8671 5.49952 27.4805 6.0166 27.9834C6.51952 28.5005 7.13294 28.8986 7.80869 29.1479C8.35835 29.3618 9.18285 29.6154 10.7029 29.6848C12.3463 29.7599 12.8379 29.7755 17 29.7755C21.1622 29.7755 21.6538 29.7599 23.2971 29.6848C24.8172 29.6154 25.6417 29.3618 26.1914 29.1479C26.9181 28.8646 27.438 28.5288 27.9834 27.9834C28.5005 27.4805 28.8986 26.8671 29.1479 26.1913C29.3619 25.6417 29.6154 24.8172 29.6849 23.2971C29.7599 21.6537 29.7755 21.1607 29.7755 17C29.7755 12.8392 29.7599 12.3462 29.6849 10.7029C29.6154 9.18282 29.3619 8.35832 29.1479 7.80866C28.8646 7.08191 28.5289 6.56199 27.9834 6.01657C27.4804 5.49959 26.8681 5.1017 26.1914 4.85207C25.6417 4.63816 24.8172 4.38457 23.2971 4.31516ZM15.0096 21.8039C16.1212 22.2666 17.359 22.3291 18.5115 21.9806C19.664 21.6321 20.6598 20.8943 21.3288 19.8932C21.9978 18.892 22.2984 17.6897 22.1794 16.4916C22.0604 15.2934 21.5291 14.1737 20.6763 13.3237C20.1326 12.7804 19.4752 12.3644 18.7515 12.1056C18.0277 11.8468 17.2556 11.7517 16.4907 11.8272C15.7258 11.9026 14.9872 12.1467 14.3279 12.5419C13.6687 12.9371 13.1052 13.4735 12.6782 14.1126C12.2512 14.7517 11.9711 15.4775 11.8583 16.2378C11.7454 16.9981 11.8025 17.7739 12.0255 18.5095C12.2484 19.245 12.6317 19.922 13.1477 20.4917C13.6637 21.0613 14.2996 21.5095 15.0096 21.8039ZM11.3362 11.3362C12.08 10.5924 12.963 10.0024 13.9348 9.59984C14.9066 9.1973 15.9481 8.99012 17 8.99012C18.0519 8.99012 19.0935 9.1973 20.0653 9.59983C21.0371 10.0024 21.9201 10.5924 22.6639 11.3362C23.4076 12.0799 23.9976 12.9629 24.4002 13.9347C24.8027 14.9065 25.0099 15.9481 25.0099 17C25.0099 18.0519 24.8027 19.0934 24.4002 20.0652C23.9976 21.037 23.4076 21.92 22.6639 22.6638C21.1617 24.166 19.1244 25.0099 17 25.0099C14.8757 25.0099 12.8383 24.166 11.3362 22.6638C9.83404 21.1617 8.99015 19.1243 8.99015 17C8.99015 14.8756 9.83404 12.8383 11.3362 11.3362ZM26.7864 10.183C26.9707 10.0091 27.1182 9.80004 27.2203 9.56812C27.3223 9.3362 27.3768 9.08616 27.3805 8.83281C27.3842 8.57945 27.337 8.32793 27.2418 8.09314C27.1465 7.85834 27.0051 7.64505 26.826 7.46588C26.6468 7.28671 26.4335 7.14531 26.1987 7.05006C25.9639 6.9548 25.7124 6.90762 25.459 6.91132C25.2057 6.91501 24.9556 6.9695 24.7237 7.07156C24.4918 7.17362 24.2827 7.32117 24.1089 7.50549C23.7707 7.86395 23.5856 8.34008 23.5928 8.83281C23.5999 9.32554 23.7989 9.79607 24.1473 10.1445C24.4958 10.493 24.9663 10.6919 25.459 10.6991C25.9518 10.7063 26.4279 10.5211 26.7864 10.183Z" fill="url(#paint0_linear_36_478)"/>
<defs>
<linearGradient id="paint0_linear_36_478" x1="17" y1="1.41666" x2="17" y2="32.5833" gradientUnits="userSpaceOnUse">
<stop stop-color="#AD00FF"/>
<stop offset="0.526042" stop-color="#FF01B8"/>
<stop offset="1" stop-color="#FFA800"/>
</linearGradient>
</defs>
</svg>
