<svg width="28" height="28" viewBox="0 0 28 28" fill="none" xmlns="http://www.w3.org/2000/svg">
<g clip-path="url(#clip0_70_9)">
<path d="M23.8572 23.8576H19.7085V17.3604C19.7085 15.8111 19.6808 13.8167 17.5507 13.8167C15.3899 13.8167 15.0593 15.5048 15.0593 17.2476V23.8572H10.9107V10.4964H14.8933V12.3223H14.9491C15.3477 11.6408 15.9236 11.0801 16.6156 10.7C17.3076 10.32 18.0898 10.1347 18.8787 10.164C23.0837 10.164 23.8589 12.9298 23.8589 16.5281L23.8572 23.8576V23.8576ZM6.22941 8.67013C4.89974 8.67035 3.82163 7.59257 3.82141 6.2629C3.82119 4.93323 4.89886 3.85512 6.22854 3.8549C7.55821 3.85457 8.63632 4.93235 8.63654 6.26202C8.63665 6.90056 8.38311 7.51299 7.93169 7.96459C7.48027 8.4162 6.86795 8.66999 6.22941 8.67013V8.67013ZM8.30382 23.8577H4.15074V10.4964H8.30371V23.8576L8.30382 23.8577ZM25.9254 0.00194631H2.06605C0.938394 -0.0107412 0.0136287 0.892587 -0.000152588 2.02024V25.9792C0.0131912 27.1074 0.937848 28.0116 2.06594 27.9998H25.9254C27.0559 28.0138 27.9842 27.1095 27.9999 25.9792V2.01838C27.9838 0.88854 27.0554 -0.0146787 25.9254 8.69355e-05" fill="#0A66C2"/>
</g>
<defs>
<clipPath id="clip0_70_9">
<rect width="28" height="28" fill="white"/>
</clipPath>
</defs>
</svg>
