<svg width="231" height="57" viewBox="0 0 231 57" fill="none" xmlns="http://www.w3.org/2000/svg">
<path d="M72.184 38V25.256H67.288V21.08H82.264V25.256H77.368V38H72.184ZM84.2545 38V21.08H89.4385V27.32H95.2225V21.08H100.407V38H95.2225V31.544H89.4385V38H84.2545ZM101.284 38L109.324 21.08H113.524L121.612 38H116.428L114.412 33.416L116.356 34.856H106.54L108.46 33.416L106.444 38H101.284ZM111.412 26.36L108.94 32.288L108.22 30.944H114.676L114.028 32.288L111.532 26.36H111.412ZM122.495 38V21.08H126.287L134.135 30.56H133.391V21.08H138.215V38H134.423L126.599 28.52H127.343V38H122.495ZM139.103 38L147.143 21.08H151.343L159.431 38H154.247L152.231 33.416L154.175 34.856H144.359L146.279 33.416L144.263 38H139.103ZM149.231 26.36L146.759 32.288L146.039 30.944H152.495L151.847 32.288L149.351 26.36H149.231ZM168.701 38.288C166.813 38.288 165.173 37.928 163.781 37.208C162.405 36.472 161.333 35.448 160.565 34.136C159.813 32.824 159.437 31.288 159.437 29.528C159.437 27.768 159.813 26.24 160.565 24.944C161.333 23.632 162.405 22.616 163.781 21.896C165.173 21.16 166.813 20.792 168.701 20.792C169.853 20.792 170.909 20.944 171.869 21.248C172.845 21.536 173.653 21.952 174.293 22.496L172.781 26.552C172.061 26.072 171.413 25.744 170.837 25.568C170.261 25.376 169.613 25.28 168.893 25.28C167.597 25.28 166.597 25.648 165.893 26.384C165.205 27.104 164.861 28.152 164.861 29.528C164.861 30.92 165.205 31.984 165.893 32.72C166.597 33.44 167.597 33.8 168.893 33.8C169.613 33.8 170.261 33.712 170.837 33.536C171.413 33.344 172.061 33.008 172.781 32.528L174.293 36.584C173.653 37.128 172.845 37.552 171.869 37.856C170.909 38.144 169.853 38.288 168.701 38.288ZM176.575 38V21.08H181.759V27.32H187.543V21.08H192.727V38H187.543V31.544H181.759V38H176.575ZM195.404 29.528C195.404 27.784 195.756 26.256 196.46 24.944C197.18 23.632 198.196 22.616 199.508 21.896C200.82 21.16 202.372 20.792 204.164 20.792C205.972 20.792 207.532 21.16 208.844 21.896C210.156 22.616 211.172 23.632 211.892 24.944C212.612 26.256 212.972 27.784 212.972 29.528C212.972 31.272 212.612 32.8 211.892 34.112C211.172 35.424 210.156 36.448 208.844 37.184C207.532 37.92 205.972 38.288 204.164 38.288C202.372 38.288 200.82 37.92 199.508 37.184C198.196 36.448 197.18 35.424 196.46 34.112C195.756 32.784 195.404 31.256 195.404 29.528ZM200.828 29.528C200.828 30.936 201.092 32.032 201.62 32.816C202.164 33.6 203.012 33.992 204.164 33.992C205.316 33.992 206.164 33.6 206.708 32.816C207.268 32.016 207.548 30.92 207.548 29.528C207.548 28.136 207.268 27.048 206.708 26.264C206.164 25.48 205.316 25.088 204.164 25.088C203.012 25.088 202.164 25.48 201.62 26.264C201.092 27.032 200.828 28.12 200.828 29.528ZM218.49 38V25.256H213.594V21.08H228.57V25.256H223.674V38H218.49Z" fill="#FF0032"/>
<path d="M45.12 5H1.88C0.840125 5 0 5.84012 0 6.88V50.12C0 51.1599 0.840125 52 1.88 52H45.12C46.1599 52 47 51.1599 47 50.12V6.88C47 5.84012 46.1599 5 45.12 5ZM23.5646 28.8584L12.2846 38.3171C11.9791 38.5756 11.515 38.3582 11.515 37.9588V34.2751C11.515 34.14 11.5796 34.0049 11.6854 33.9167L18.1361 28.5L11.6854 23.0833C11.6314 23.0406 11.5879 22.9861 11.5584 22.9239C11.5288 22.8618 11.514 22.7937 11.515 22.7249V19.0413C11.515 18.6418 11.9791 18.4244 12.2846 18.6829L23.5646 28.1357C23.7937 28.3237 23.7937 28.6704 23.5646 28.8584ZM35.485 37.9588C35.485 38.2173 35.2853 38.4287 35.0444 38.4287H24.1756C23.9347 38.4287 23.735 38.2173 23.735 37.9588V35.1388C23.735 34.8802 23.9347 34.6688 24.1756 34.6688H35.0444C35.2853 34.6688 35.485 34.8802 35.485 35.1388V37.9588Z" fill="#FF0032"/>
</svg>
