<svg width="251" height="27" viewBox="0 0 251 27" fill="none" xmlns="http://www.w3.org/2000/svg">
<path d="M7.776 26V6.884H0.432V0.619998H22.896V6.884H15.552V26H7.776ZM25.7317 26V0.619998H33.5077V9.98H42.1838V0.619998H49.9597V26H42.1838V16.316H33.5077V26H25.7317ZM51.126 26L63.186 0.619998H69.486L81.618 26H73.842L70.818 19.124L73.734 21.284H59.01L61.89 19.124L58.866 26H51.126ZM66.318 8.54L62.61 17.432L61.53 15.416H71.214L70.242 17.432L66.498 8.54H66.318ZM82.7927 26V0.619998H88.4807L100.253 14.84H99.1367V0.619998H106.373V26H100.685L88.9487 11.78H90.0647V26H82.7927ZM107.554 26L119.614 0.619998H125.914L138.046 26H130.27L127.246 19.124L130.162 21.284H115.438L118.318 19.124L115.294 26H107.554ZM122.746 8.54L119.038 17.432L117.958 15.416H127.642L126.67 17.432L122.926 8.54H122.746ZM151.802 26.432C148.97 26.432 146.51 25.892 144.422 24.812C142.358 23.708 140.75 22.172 139.598 20.204C138.47 18.236 137.906 15.932 137.906 13.292C137.906 10.652 138.47 8.36 139.598 6.416C140.75 4.448 142.358 2.924 144.422 1.844C146.51 0.74 148.97 0.188 151.802 0.188C153.53 0.188 155.114 0.416 156.554 0.872C158.018 1.304 159.23 1.928 160.19 2.744L157.922 8.828C156.842 8.108 155.87 7.616 155.006 7.352C154.142 7.064 153.17 6.92 152.09 6.92C150.146 6.92 148.646 7.472 147.59 8.576C146.558 9.656 146.042 11.228 146.042 13.292C146.042 15.38 146.558 16.976 147.59 18.08C148.646 19.16 150.146 19.7 152.09 19.7C153.17 19.7 154.142 19.568 155.006 19.304C155.87 19.016 156.842 18.512 157.922 17.792L160.19 23.876C159.23 24.692 158.018 25.328 156.554 25.784C155.114 26.216 153.53 26.432 151.802 26.432ZM163.462 26V0.619998H171.238V9.98H179.914V0.619998H187.69V26H179.914V16.316H171.238V26H163.462ZM191.556 13.292C191.556 10.676 192.084 8.384 193.14 6.416C194.22 4.448 195.744 2.924 197.712 1.844C199.68 0.74 202.008 0.188 204.696 0.188C207.408 0.188 209.748 0.74 211.716 1.844C213.684 2.924 215.208 4.448 216.288 6.416C217.368 8.384 217.908 10.676 217.908 13.292C217.908 15.908 217.368 18.2 216.288 20.168C215.208 22.136 213.684 23.672 211.716 24.776C209.748 25.88 207.408 26.432 204.696 26.432C202.008 26.432 199.68 25.88 197.712 24.776C195.744 23.672 194.22 22.136 193.14 20.168C192.084 18.176 191.556 15.884 191.556 13.292ZM199.692 13.292C199.692 15.404 200.088 17.048 200.88 18.224C201.696 19.4 202.968 19.988 204.696 19.988C206.424 19.988 207.696 19.4 208.512 18.224C209.352 17.024 209.772 15.38 209.772 13.292C209.772 11.204 209.352 9.572 208.512 8.396C207.696 7.22 206.424 6.632 204.696 6.632C202.968 6.632 201.696 7.22 200.88 8.396C200.088 9.548 199.692 11.18 199.692 13.292ZM226.035 26V6.884H218.691V0.619998H241.155V6.884H233.811V26H226.035Z" fill="#3F3F3F"/>
<path d="M243.235 26V18.548H250.831V26H243.235Z" fill="#FFA800"/>
</svg>
